<svg width="235" height="50" fill="none" xmlns="http://www.w3.org/2000/svg"><path d="M220.42 40.456l1.412-3.746c1.731.998 4.442 1.675 6.362 1.675 1.186 0 1.882-.282 1.882-.715 0-1.506-9.167-1.035-9.167-6.25 0-2.503 2.466-4.404 6.739-4.404 4.311 0 6.4 1.713 6.4 1.713l-1.75 3.2c-1.337-.753-3.558-1.261-4.989-1.261-1.167 0-1.938.282-1.938.79 0 1.506 9.167.942 9.167 6.325 0 2.052-1.958 4.33-6.513 4.33-4.443 0-7.605-1.657-7.605-1.657zm-10.195 1.148V31.251h-4.499v-3.764h13.365v3.764h-4.499v10.353h-4.367zm-9.933-5.514l4.292.846c-.866 3.332-3.633 5.045-7.529 5.045-4.725 0-7.812-2.541-7.812-7.435 0-4.895 3.068-7.436 7.812-7.436 3.99 0 6.814 1.807 7.585 5.29l-4.291.753c-.414-1.487-1.45-2.278-3.294-2.278-2.353 0-3.426 1.337-3.426 3.67 0 2.316 1.073 3.671 3.426 3.671 1.788 0 2.804-.753 3.237-2.127zm-24.848 5.514V27.487h12.028v3.764h-7.661v1.75h7.021v3.088h-7.021v1.75h7.661v3.765h-12.028zm-15.343-5.779h4.367c0 1.506.697 2.391 2.297 2.391 1.581 0 2.183-.79 2.183-2.297v-8.432h4.386v8.188c0 4.047-2.259 6.306-6.663 6.306-4.029 0-6.476-2.165-6.57-6.156zm-17.052-1.28c0-4.931 3.087-7.491 7.868-7.491 4.781 0 7.868 2.56 7.868 7.491 0 4.932-3.087 7.492-7.868 7.492-4.763 0-7.868-2.56-7.868-7.492zm7.868 3.727c2.259 0 3.445-1.411 3.445-3.727 0-2.371-1.168-3.727-3.445-3.727-2.259 0-3.445 1.393-3.445 3.727 0 2.316 1.186 3.727 3.445 3.727zm-23.506 3.332V27.487h8.414c3.219 0 5.666 1.449 5.666 5.1 0 2.41-1.28 3.897-3.049 4.631l3.332 4.386h-5.158l-2.391-3.463h-2.447v3.463h-4.367zm8.019-10.353h-3.652v3.238h3.652c1.054 0 1.694-.49 1.694-1.581 0-1.224-.809-1.657-1.694-1.657zm-23.699 10.353V27.487h8.132c3.313 0 5.816 1.826 5.816 5.59 0 3.765-2.503 5.572-5.816 5.572h-3.765v2.955h-4.367zm7.68-10.353h-3.313v3.633h3.313c.998 0 1.882-.414 1.882-1.788 0-1.355-.884-1.845-1.882-1.845zm62.412-8.471V8.663h8.414c3.218 0 5.666 1.45 5.666 5.101 0 2.41-1.28 3.896-3.05 4.63l3.332 4.387h-5.158l-2.39-3.464h-2.447v3.463h-4.367zm8.018-10.353h-3.651v3.238h3.651c1.054 0 1.694-.49 1.694-1.581 0-1.223-.809-1.656-1.694-1.656zM167.686 22.78V8.663h12.028v3.764h-7.661v1.751h7.021v3.087h-7.021v1.75h7.661v3.765h-12.028zm-16.089-1.147l1.412-3.746c1.732.998 4.442 1.675 6.362 1.675 1.186 0 1.883-.282 1.883-.715 0-1.506-9.167-1.035-9.167-6.25 0-2.503 2.465-4.404 6.738-4.404 4.311 0 6.4 1.713 6.4 1.713l-1.75 3.2c-1.337-.753-3.558-1.261-4.988-1.261-1.167 0-1.939.282-1.939.79 0 1.506 9.167.941 9.167 6.325 0 2.052-1.958 4.33-6.513 4.33-4.442 0-7.605-1.657-7.605-1.657zm-6.443 1.147V8.663h4.367V22.78h-4.367zm-18.072 0l5.12-14.117h6.25l5.12 14.117h-4.669l-.734-2.22h-5.703l-.734 2.22h-4.65zm6.513-5.684h3.445l-1.412-4.217h-.621l-1.412 4.217zm-21.882 5.684V8.663h4.367v5.214h1.638l3.388-5.214H126l-4.687 6.739 5.064 7.379h-5.083l-3.576-5.365h-1.638v5.364h-4.367z" fill="#231A2C"/><path fill-rule="evenodd" clip-rule="evenodd" d="M44.01 0H.462v50h43.032l-20.88-20.843h-3.635v11.921H9.285V9.706h9.694v11.587h3.635L44.01 0z" fill="#931825"/><path fill-rule="evenodd" clip-rule="evenodd" d="M97.913 0H53.992L29.678 25l24.314 25h43.921V0zM59.286 9.608V40.98h9.7v-6.567h8.361c7.359 0 12.92-4.015 12.92-12.381 0-8.367-5.561-12.424-12.92-12.424H59.286zm9.7 8.366h7.358c2.216 0 4.18 1.087 4.18 4.1 0 3.053-1.964 3.973-4.18 3.973h-7.359v-8.073z" fill="#422562"/></svg>