<svg width="22" height="24" viewBox="0 0 22 24" fill="none" xmlns="http://www.w3.org/2000/svg">
<path d="M8.44614 17.0059L9.1469 16.3055C9.31661 16.1359 9.31382 15.8601 9.14072 15.6939L6.25865 12.9278H18.5692C18.8058 12.9278 18.9976 12.7361 18.9976 12.4996V11.5005C18.9976 11.264 18.8058 11.0722 18.5692 11.0722H6.25865L9.14069 8.30613C9.31382 8.13998 9.31661 7.86411 9.14686 7.69451L8.44611 6.99418C8.27879 6.82697 8.0075 6.82697 7.84015 6.99418L3.13428 11.6972C2.96696 11.8645 2.96696 12.1356 3.13428 12.3028L7.84022 17.0059C8.00754 17.1731 8.27883 17.1731 8.44614 17.0059Z" fill="white"/>
</svg>
