<svg width="235" height="50" viewBox="0 0 235 50" fill="none" xmlns="http://www.w3.org/2000/svg">
<path d="M220.42 40.4561L221.832 36.7102C223.563 37.7079 226.274 38.3855 228.194 38.3855C229.38 38.3855 230.076 38.1032 230.076 37.6702C230.076 36.1644 220.909 36.6349 220.909 31.4208C220.909 28.9173 223.375 27.0161 227.648 27.0161C231.959 27.0161 234.048 28.7291 234.048 28.7291L232.298 31.9291C230.961 31.1761 228.74 30.6679 227.309 30.6679C226.142 30.6679 225.371 30.9502 225.371 31.4585C225.371 32.9643 234.538 32.3996 234.538 37.7832C234.538 39.8349 232.58 42.1126 228.025 42.1126C223.582 42.1126 220.42 40.4561 220.42 40.4561Z" fill="#231A2C"/>
<path d="M210.225 41.6042V31.2513H205.726V27.4866H219.091V31.2513H214.592V41.6042H210.225Z" fill="#231A2C"/>
<path d="M200.292 36.0892L204.584 36.9362C203.718 40.268 200.951 41.9809 197.055 41.9809C192.33 41.9809 189.243 39.4398 189.243 34.5456C189.243 29.6515 192.311 27.1104 197.055 27.1104C201.045 27.1104 203.869 28.9174 204.64 32.3998L200.349 33.1527C199.935 31.6656 198.899 30.8751 197.055 30.8751C194.702 30.8751 193.629 32.2115 193.629 34.5456C193.629 36.8609 194.702 38.2162 197.055 38.2162C198.843 38.2162 199.859 37.4633 200.292 36.0892Z" fill="#231A2C"/>
<path d="M175.444 41.6042V27.4866H187.472V31.2513H179.811V33.0019H186.832V36.0889H179.811V37.8395H187.472V41.6042H175.444Z" fill="#231A2C"/>
<path d="M160.101 35.8254H164.468C164.468 37.3313 165.165 38.216 166.765 38.216C168.346 38.216 168.948 37.4254 168.948 35.9195V27.4866H173.334V35.6748C173.334 39.7219 171.075 41.9807 166.671 41.9807C162.642 41.9807 160.195 39.816 160.101 35.8254Z" fill="#231A2C"/>
<path d="M143.049 34.5455C143.049 29.6137 146.136 27.0537 150.917 27.0537C155.698 27.0537 158.785 29.6137 158.785 34.5455C158.785 39.4772 155.698 42.0372 150.917 42.0372C146.154 42.0372 143.049 39.4772 143.049 34.5455ZM150.917 38.2725C153.176 38.2725 154.362 36.8608 154.362 34.5455C154.362 32.1737 153.194 30.8184 150.917 30.8184C148.658 30.8184 147.472 32.2114 147.472 34.5455C147.472 36.8608 148.658 38.2725 150.917 38.2725Z" fill="#231A2C"/>
<path d="M127.411 41.6042V27.4866H135.825C139.044 27.4866 141.491 28.936 141.491 32.5877C141.491 34.9972 140.211 36.4842 138.442 37.2183L141.774 41.6042H136.616L134.225 38.1407H131.778V41.6042H127.411ZM135.43 31.2513H131.778V34.4889H135.43C136.484 34.4889 137.124 33.9995 137.124 32.9077C137.124 31.6842 136.315 31.2513 135.43 31.2513Z" fill="#231A2C"/>
<path d="M111.731 41.6042V27.4866H119.863C123.176 27.4866 125.679 29.3125 125.679 33.0772C125.679 36.8419 123.176 38.6489 119.863 38.6489H116.098V41.6042H111.731ZM119.411 31.2513H116.098V34.8842H119.411C120.409 34.8842 121.293 34.4701 121.293 33.096C121.293 31.7407 120.409 31.2513 119.411 31.2513Z" fill="#231A2C"/>
<path d="M181.823 22.7805V8.66284H190.237C193.455 8.66284 195.903 10.1123 195.903 13.764C195.903 16.1734 194.623 17.6605 192.853 18.3946L196.185 22.7805H191.027L188.637 19.317H186.19V22.7805H181.823ZM189.841 12.4275H186.19V15.6652H189.841C190.895 15.6652 191.535 15.1758 191.535 14.084C191.535 12.8605 190.726 12.4275 189.841 12.4275Z" fill="#231A2C"/>
<path d="M167.686 22.7805V8.66284H179.714V12.4275H172.053V14.1781H179.074V17.2652H172.053V19.0158H179.714V22.7805H167.686Z" fill="#231A2C"/>
<path d="M151.597 21.6329L153.009 17.887C154.741 18.8846 157.451 19.5623 159.371 19.5623C160.557 19.5623 161.254 19.2799 161.254 18.847C161.254 17.3411 152.087 17.8117 152.087 12.5976C152.087 10.094 154.552 8.19287 158.825 8.19287C163.136 8.19287 165.225 9.90581 165.225 9.90581L163.475 13.1058C162.138 12.3529 159.917 11.8446 158.487 11.8446C157.32 11.8446 156.548 12.127 156.548 12.6352C156.548 14.1411 165.715 13.5764 165.715 18.9599C165.715 21.0117 163.757 23.2893 159.202 23.2893C154.76 23.2893 151.597 21.6329 151.597 21.6329Z" fill="#231A2C"/>
<path d="M145.154 22.7805V8.66284H149.521V22.7805H145.154Z" fill="#231A2C"/>
<path d="M127.082 22.7805L132.202 8.66284H138.452L143.572 22.7805H138.903L138.169 20.5593H132.466L131.732 22.7805H127.082ZM133.595 17.0958H137.04L135.628 12.8793H135.007L133.595 17.0958Z" fill="#231A2C"/>
<path d="M111.713 22.7805V8.66284H116.08V13.877H117.718L121.106 8.66284H126L121.313 15.4017L126.377 22.7805H121.294L117.718 17.4158H116.08V22.7805H111.713Z" fill="#231A2C"/>
<path fill-rule="evenodd" clip-rule="evenodd" d="M44.0099 0H0.462402V50H43.4938L22.614 29.1569H18.9789V41.0784H9.28524V9.70588H18.9789V21.2928H22.614L44.0099 0Z" fill="#931825"/>
<path fill-rule="evenodd" clip-rule="evenodd" d="M97.9131 0H53.9916L29.6779 25L53.9916 50H97.9131V0ZM59.2858 9.60795V40.9805H68.9854V34.4132H77.3472C84.7056 34.4132 90.2662 30.3975 90.2662 22.0315C90.2662 13.6655 84.7056 9.60795 77.3472 9.60795H59.2858ZM68.9854 17.974H76.3438C78.5597 17.974 80.5247 19.0615 80.5247 22.0733C80.5247 25.1269 78.5597 26.0472 76.3438 26.0472H68.9854V17.974Z" fill="#422562"/>
</svg>
